<?xml version="1.0" encoding="utf-8"?>
<!DOCTYPE svg PUBLIC "-//W3C//DTD SVG 1.0//EN" "http://www.w3.org/TR/2001/REC-SVG-20010904/DTD/svg10.dtd">
<svg version="1.0" xmlns="http://www.w3.org/2000/svg" width="339px" height="189px" viewBox="0 0 339 189" preserveAspectRatio="xMidYMid meet">
 <g fill="none">
  <path d="M102.07 130.89 c-0.22 -0.07 -0.32 -0.91 -0.32 -2.93 l0 -2.81 2.04 0 c1.82 0 2.12 0.07 2.59 0.57 0.44 0.47 0.54 0.86 0.54 2.29 0 1.03 -0.12 1.90 -0.32 2.17 -0.47 0.64 -3.55 1.13 -4.53 0.71z"/>
  <path d="M115.30 135.33 c-1.40 -0.71 -1.97 -2.17 -1.97 -4.98 0 -3.97 0.96 -5.20 4.07 -5.20 3.18 0 4.16 1.26 4.16 5.30 0.02 2.71 -0.32 3.65 -1.65 4.63 -0.94 0.71 -3.42 0.86 -4.61 0.25z"/>
  <path d="M128.73 130.11 c-0.07 -0.15 -0.05 -1.31 0.02 -2.59 l0.17 -2.37 2.02 0 c2.61 0 2.96 0.32 2.96 2.64 0 2.19 -0.44 2.54 -3.10 2.54 -1.06 0 -1.97 -0.10 -2.07 -0.22z"/>
  <path d="M167.28 133.16 l0 -2.59 2.19 0 c2.96 0 3.35 0.30 3.35 2.54 0 2.39 -0.32 2.64 -3.25 2.64 l-2.29 0 0 -2.59z"/>
  <path d="M167.33 127.45 l0.07 -2.41 2.07 0.02 c2.56 0.05 2.98 0.39 2.98 2.44 0 1.13 -0.10 1.40 -0.64 1.82 -0.54 0.42 -1.01 0.52 -2.61 0.52 l-1.95 0 0.07 -2.39z"/>
  <path d="M180.34 131.51 c0 -0.57 0.27 -1.95 0.62 -3.08 l0.64 -2.04 0.94 0 0.94 0 0.67 2.17 c0.34 1.18 0.64 2.56 0.64 3.08 l0 0.91 -2.22 0 -2.22 0 0 -1.03z"/>
  <path d="M193.47 130.40 c-0.22 -0.07 -0.32 -0.86 -0.32 -2.69 l0 -2.56 2.09 0 c2.71 0 3.08 0.30 3.08 2.54 0 1.85 -0.30 2.34 -1.60 2.64 -1.06 0.25 -2.76 0.30 -3.25 0.07z"/>
  <path d="M181.62 108.28 c-3.97 -0.89 -5.42 -3.30 -5.17 -8.50 0.27 -5.40 2.39 -7.07 9.31 -7.32 6.38 -0.25 9.44 0.74 10.91 3.50 0.49 0.89 0.54 1.38 0.54 4.56 0 3.92 -0.15 4.48 -1.68 6.11 -1.43 1.48 -2.91 1.85 -7.93 1.92 -3.18 0.07 -4.88 -0.02 -5.99 -0.27z"/>
 </g>
 <g fill="#cb151e">
  <path d="M121.95 161.12 c-10.77 -0.62 -21.88 -1.77 -30.80 -3.20 -4.83 -0.79 -4.43 -0.64 -4.43 -1.65 l0 -0.89 4.14 0.17 c13.82 0.52 27.69 0.39 38.36 -0.34 1.90 -0.12 5.22 -0.34 7.39 -0.49 18.43 -1.23 39 -4.43 55.68 -8.65 15.74 -3.99 30.80 -9.53 41.09 -15.15 17.34 -9.41 28.01 -22.10 28.06 -33.36 0.07 -12.34 -12.15 -25.94 -34.05 -37.89 -14.56 -7.96 -33.06 -14.26 -57.77 -19.73 -6.65 -1.45 -15.15 -3.03 -22.22 -4.09 l-2.78 -0.42 0 -0.81 c0 -1.40 0.17 -1.43 6.36 -1.26 31.83 0.94 58.61 4.93 82.95 12.34 23.55 7.19 40.08 15.92 51.12 26.98 7.79 7.76 11.31 14.98 11.33 23.18 0 5.99 -1.75 11.21 -5.67 16.78 -1.75 2.51 -10.40 11.41 -12.32 12.69 -0.62 0.39 -2.51 1.70 -4.24 2.86 -4.66 3.18 -6.87 4.43 -15 8.57 -6.50 3.28 -18.55 8.25 -24.98 10.32 -1.75 0.57 -3.79 1.26 -4.51 1.50 -1.60 0.57 -6.43 2 -10.15 2.98 -1.55 0.39 -3.15 0.84 -3.57 0.94 -2.88 0.76 -5.62 1.45 -6.78 1.70 -2.61 0.54 -7.79 1.55 -9.12 1.77 -0.74 0.15 -2.02 0.39 -2.83 0.57 -0.81 0.20 -2.91 0.57 -4.68 0.86 -1.75 0.27 -4.31 0.69 -5.67 0.91 -1.36 0.22 -3.40 0.49 -4.56 0.59 -1.16 0.12 -3.65 0.44 -5.54 0.71 -1.90 0.27 -4.88 0.62 -6.65 0.76 -1.75 0.15 -4.04 0.39 -5.05 0.52 -2.32 0.32 -38.24 0.49 -43.11 0.22z"/>
 </g>
 <g fill="#ffffff">
  <path d="M132.30 99.29 c0 -2.78 0.02 -2.96 0.49 -2.96 0.47 0 0.49 0.17 0.49 2.96 0 2.78 -0.02 2.96 -0.49 2.96 -0.47 0 -0.49 -0.17 -0.49 -2.96z"/>
  <path d="M260.41 97.19 c0 -1.68 0.05 -1.85 0.49 -1.85 0.44 0 0.49 0.17 0.49 1.85 0 1.68 -0.05 1.85 -0.49 1.85 -0.44 0 -0.49 -0.17 -0.49 -1.85z"/>
 </g>
 <g fill="#ffffff">
  <path d="M156.15 188.30 c-0.71 -0.07 -0.94 -0.22 -0.94 -0.54 0 -0.27 0.25 -0.52 0.57 -0.62 0.89 -0.22 2.88 -0.17 2.88 0.10 0 0.15 0.86 0.25 2.09 0.25 1.92 0 2.09 0.05 2.09 0.49 0 0.47 -0.15 0.49 -2.88 0.44 -1.60 -0.02 -3.33 -0.07 -3.82 -0.12z"/>
  <path d="M193 182.88 c0.10 -0.76 0.22 -1.45 0.27 -1.50 0.05 -0.07 0.71 -0.02 1.48 0.07 l1.36 0.15 0 1.08 c0 0.96 -0.07 1.08 -0.76 1.33 -0.44 0.15 -1.18 0.27 -1.65 0.27 l-0.86 0 0.17 -1.40z"/>
  <path d="M94.97 159.35 c-2.56 -0.39 -4.71 -0.76 -4.78 -0.81 -0.05 -0.05 -0.02 -0.39 0.07 -0.74 0.12 -0.52 0.30 -0.62 1.13 -0.62 0.54 0 0.99 0.10 0.99 0.22 0 0.27 2.51 0.86 5.49 1.26 2.02 0.27 2.14 0.32 2.14 0.89 0 0.32 -0.07 0.59 -0.17 0.57 -0.12 0 -2.29 -0.34 -4.88 -0.76z"/>
  <path d="M96.03 156.52 l-4.88 -0.07 0 -0.81 0 -0.79 14.29 -0.02 c13.50 -0.05 14.29 -0.02 14.29 0.39 0 0.39 -0.39 0.44 -3.87 0.62 -2.51 0.10 -4.14 0.30 -4.61 0.52 -0.74 0.34 -1.60 0.37 -15.23 0.17z"/>
  <path d="M167.09 132.74 l0.07 -2.29 2.04 -0.07 c1.97 -0.07 2.02 -0.05 2.02 0.49 0 0.54 -0.07 0.57 -1.60 0.49 l-1.60 -0.10 0 1.87 c0 1.72 -0.05 1.87 -0.49 1.87 -0.49 0 -0.52 -0.12 -0.44 -2.27z"/>
  <path d="M256.17 84.33 c-2.04 -3.35 -7.71 -9.26 -12.52 -13.11 -2.41 -1.92 -9.68 -6.87 -12 -8.18 -1.38 -0.79 -1.38 -1.21 0.02 -1.21 0.84 0 1.31 0.17 1.92 0.67 0.44 0.39 0.86 0.76 0.89 0.89 0.05 0.10 0.20 0.17 0.30 0.17 0.12 0 0.71 0.34 1.31 0.74 0.62 0.42 1.18 0.74 1.26 0.74 0.07 0 0.71 0.44 1.43 0.99 0.71 0.54 1.45 0.99 1.63 0.99 0.15 0 0.30 0.12 0.30 0.25 0 0.15 0.27 0.37 0.62 0.49 0.34 0.12 0.62 0.34 0.62 0.49 0 0.12 0.12 0.25 0.30 0.25 0.15 0 0.44 0.17 0.67 0.37 0.89 0.86 2.37 2.09 2.51 2.09 0.07 0 0.54 0.37 1.01 0.81 0.47 0.42 1.11 0.96 1.40 1.18 0.89 0.67 4.21 3.94 4.21 4.19 0 0.10 0.39 0.52 0.86 0.89 0.49 0.37 1.18 1.13 1.53 1.68 0.37 0.54 0.79 1.11 0.94 1.23 0.71 0.67 1.85 2.83 1.85 3.52 0 1.03 -0.32 0.99 -1.03 -0.12z"/>
  <path d="M285.56 73.66 c-0.99 -1.08 -1.95 -1.97 -2.12 -1.97 -0.62 0 -1.13 -0.91 -1.06 -1.90 l0.07 -0.94 2.81 2.71 c1.53 1.50 3.01 3.01 3.28 3.40 l0.47 0.67 -0.81 0 c-0.69 -0.02 -1.08 -0.30 -2.64 -1.97z"/>
  <path d="M188.22 45.48 c-1.33 -0.39 -1.87 -0.67 -1.92 -0.99 -0.10 -0.42 0.05 -0.44 1.58 -0.34 0.99 0.05 1.70 0.22 1.77 0.39 0.05 0.17 0.25 0.30 0.44 0.30 0.20 0 0.34 0.25 0.34 0.62 0 0.71 0.12 0.71 -2.22 0.02z"/>
 </g>
 <g fill="#ffffff">
  <path d="M243.66 162.11 c0 -0.15 -0.74 -0.25 -1.72 -0.25 l-1.72 0 0 -0.86 c0 -1.03 0.42 -1.26 2.96 -1.65 0.89 -0.12 1.97 -0.30 2.41 -0.37 1.03 -0.17 1.53 0.25 1.53 1.31 0 0.57 -0.12 0.84 -0.47 0.96 -0.25 0.07 -0.64 0.34 -0.89 0.62 -0.47 0.52 -2.09 0.69 -2.09 0.25z"/>
  <path d="M124.54 161.84 c-7.54 -0.42 -11.97 -0.71 -13.72 -0.96 -0.99 -0.12 -3.79 -0.42 -6.23 -0.64 -4.21 -0.37 -11.38 -1.38 -12.34 -1.75 -0.27 -0.07 -0.54 -0.27 -0.64 -0.42 -0.15 -0.20 -0.27 -0.17 -0.42 0.05 -0.22 0.37 -2.22 0.15 -6.28 -0.71 -1.21 -0.25 -2.32 -0.47 -2.41 -0.47 -0.12 0 -0.20 -0.47 -0.15 -1.03 l0.07 -1.06 2.27 0.05 c1.68 0.02 2.54 0.17 3.38 0.54 0.62 0.30 1.43 0.54 1.80 0.54 0.37 0.02 1.03 0.12 1.43 0.22 0.42 0.10 -0.32 0.12 -1.60 0.05 -8.87 -0.47 11.87 2.56 24.14 3.52 9.07 0.69 14.19 0.86 27.79 0.86 l13.60 0 0 0.59 c0 0.54 -0.10 0.57 -2.02 0.71 -2.81 0.22 -24.12 0.15 -28.65 -0.10z"/>
  <path d="M278.89 124 c0 -0.12 2.14 -2.37 4.75 -5 6.23 -6.33 8.55 -9.63 10.52 -14.98 2.93 -8.03 1.38 -16.24 -4.63 -24.69 -2 -2.83 -6.48 -7.49 -9.58 -10.03 -1.28 -1.03 -2.27 -2 -2.22 -2.14 0.15 -0.47 1.63 -0.44 2.37 0.02 0.91 0.57 2.78 2.34 3.13 2.93 0.15 0.25 0.54 0.59 0.84 0.76 0.47 0.25 4.02 3.77 6.11 6.11 1.11 1.21 2 2.56 2.17 3.23 0.10 0.39 0.25 0.76 0.32 0.84 0.07 0.07 0.84 1.50 1.68 3.20 2.17 4.34 2.61 6.70 2.46 12.56 -0.07 3.50 -0.20 4.68 -0.64 6.28 -0.94 3.28 -4.16 9.29 -6.58 12.20 -1.77 2.14 -6.78 7.12 -7.74 7.71 -0.47 0.27 -0.96 0.67 -1.06 0.84 -0.20 0.34 -1.90 0.47 -1.90 0.15z"/>
  <path d="M237.94 66.64 c-0.64 -0.47 -1.26 -0.86 -1.33 -0.86 -0.07 0 -0.64 -0.32 -1.26 -0.74 -0.59 -0.39 -1.13 -0.74 -1.21 -0.74 -0.07 0 -0.30 -0.15 -0.49 -0.34 -0.37 -0.39 -0.49 -1.87 -0.12 -1.87 0.20 0 5.22 3.15 6.50 4.09 0.37 0.25 0.67 0.67 0.67 0.91 0 0.74 -1.45 0.52 -2.76 -0.44z"/>
  <path d="M268.42 61.27 c-1.21 -0.74 -2.22 -1.48 -2.22 -1.68 0 -0.25 0.37 -0.37 1.28 -0.42 1.23 -0.07 1.33 -0.02 2.29 0.96 0.69 0.71 0.99 1.23 0.99 1.72 0 0.39 -0.02 0.71 -0.05 0.71 -0.05 0 -1.06 -0.59 -2.29 -1.31z"/>
 </g>
 <g fill="#ffffff">
  <path d="M162.48 188.49 c-0.27 -0.12 -1.55 -0.25 -2.83 -0.25 -1.68 -0.02 -2.24 -0.10 -1.97 -0.30 0.27 -0.17 0.07 -0.20 -0.62 -0.05 -3.55 0.71 -21.41 -1.26 -34.44 -3.74 -29.15 -5.64 -52.55 -15.32 -69.08 -28.63 -9.24 -7.44 -16.53 -16.26 -20.18 -24.46 -0.69 -1.58 -0.74 -1.87 -0.42 -1.95 0.22 -0.02 0.49 0.10 0.62 0.32 0.52 0.94 3.33 4.48 5.22 6.63 6.65 7.44 16.43 14.66 26.36 19.39 20.42 9.73 44.94 15.05 72.70 15.74 30.94 0.76 60.93 -3.99 95.96 -15.25 14.41 -4.63 21.21 -7.34 32.03 -12.74 17.84 -8.89 30.67 -17.89 39.57 -27.72 1.18 -1.33 2.34 -2.41 2.56 -2.41 0.49 0 1.75 3.67 2.49 7.19 0.69 3.30 0.86 8.55 0.37 11.73 -0.89 5.86 -4.43 13.43 -8.01 17.12 -3.99 4.14 -17.52 12.93 -26.88 17.47 -14.81 7.17 -31.71 12.54 -53.34 16.95 -10.74 2.19 -23.08 3.82 -35.35 4.68 -5.05 0.37 -24.12 0.57 -24.76 0.27z m31.76 -5.12 c0.10 -0.12 0.30 -0.22 0.42 -0.22 0.12 -0.02 0.32 -0.05 0.42 -0.07 0.12 0 0.22 -0.20 0.22 -0.39 0 -0.20 -0.05 -0.32 -0.12 -0.27 -0.05 0.07 -0.37 0.02 -0.71 -0.12 -0.37 -0.15 -0.54 -0.12 -0.44 0.02 0.07 0.12 0.02 0.47 -0.12 0.74 -0.25 0.47 -0.02 0.69 0.34 0.32z m51.71 -22.91 c0.39 -0.22 0.42 -0.27 0.07 -0.54 -0.34 -0.27 -0.39 -0.27 -0.39 0.10 0 0.34 -0.07 0.37 -0.34 0.15 -0.25 -0.22 -0.39 -0.22 -0.52 -0.02 -0.10 0.15 -0.49 0.20 -0.99 0.10 -0.47 -0.07 -0.99 -0.05 -1.16 0.05 -0.17 0.12 -0.54 0.25 -0.81 0.27 -1.18 0.20 -0.74 0.49 0.79 0.49 1.06 0.02 1.70 0.12 1.75 0.32 0.07 0.20 0.27 0.12 0.64 -0.20 0.27 -0.27 0.71 -0.59 0.96 -0.71z"/>
  <path d="M130.08 162.33 c-3.99 -0.10 -9.76 -0.34 -12.81 -0.57 -6.95 -0.49 -17.22 -1.58 -17.86 -1.87 -0.27 -0.15 -1.65 -0.42 -3.08 -0.62 -3.08 -0.47 -4.48 -0.81 -4.73 -1.18 -0.12 -0.20 -0.27 -0.15 -0.52 0.15 -0.32 0.44 -0.44 0.44 -3.89 -0.20 -3.30 -0.62 -10 -2.04 -12.10 -2.61 -0.59 -0.15 -0.94 -0.39 -0.94 -0.64 0 -0.37 0.67 -0.39 7.19 -0.25 3.97 0.10 8.94 0.17 11.04 0.20 2.17 0 3.60 0.10 3.33 0.20 l-0.49 0.20 0.49 0.12 c0.27 0.07 -0.47 0.15 -1.65 0.17 -1.26 0.02 -2.17 0.12 -2.17 0.27 0 0.15 3.15 0.25 8.94 0.25 7.42 0 9.09 -0.07 9.71 -0.37 0.47 -0.25 1.85 -0.39 4.04 -0.49 1.82 -0.07 4.14 -0.25 5.15 -0.39 1.01 -0.12 4.90 -0.34 8.62 -0.47 5.84 -0.20 11.33 -0.64 24.27 -1.97 5.47 -0.57 13.06 -1.65 19.09 -2.71 0.74 -0.15 2.91 -0.52 4.80 -0.86 1.90 -0.34 4.11 -0.76 4.93 -0.96 0.81 -0.22 3.03 -0.71 4.93 -1.16 6.21 -1.40 9.73 -2.34 19.59 -5.27 3.33 -0.99 8.89 -2.98 14.17 -5.12 13.82 -5.57 24.19 -12.12 31.36 -19.76 5.10 -5.44 7.71 -10.62 8.94 -17.54 0.32 -1.90 0.32 -1.97 -0.79 -6.73 -0.62 -2.64 -3.84 -9.36 -5.03 -10.47 -0.15 -0.12 -0.57 -0.69 -0.94 -1.23 -0.34 -0.54 -1.03 -1.31 -1.53 -1.68 -0.47 -0.37 -0.86 -0.79 -0.86 -0.89 0 -0.25 -3.33 -3.52 -4.21 -4.19 -0.30 -0.22 -0.94 -0.76 -1.40 -1.18 -0.47 -0.44 -0.94 -0.81 -1.01 -0.81 -0.15 0 -1.63 -1.23 -2.51 -2.09 -0.22 -0.20 -0.52 -0.37 -0.67 -0.37 -0.17 0 -0.30 -0.12 -0.30 -0.25 0 -0.15 -0.27 -0.37 -0.62 -0.49 -0.34 -0.12 -0.62 -0.34 -0.62 -0.49 0 -0.12 -0.15 -0.25 -0.30 -0.25 -0.17 0 -0.91 -0.44 -1.63 -0.99 -0.71 -0.54 -1.36 -0.99 -1.43 -0.99 -0.07 0 -0.64 -0.32 -1.26 -0.74 -0.59 -0.39 -1.18 -0.74 -1.31 -0.74 -0.10 0 -0.25 -0.07 -0.30 -0.17 -0.22 -0.52 -1.80 -1.58 -2.19 -1.48 -0.25 0.07 -0.79 -0.10 -1.21 -0.37 -8.25 -5 -22.49 -10.94 -35.97 -15 -4.09 -1.23 -5.15 -1.63 -5.47 -2.04 -0.07 -0.12 -0.74 -0.27 -1.48 -0.30 -0.71 -0.02 -4.19 -0.79 -7.71 -1.68 -12 -3.01 -24 -5.35 -36.59 -7.14 -4.43 -0.64 -16.06 -2.12 -16.65 -2.12 -0.20 0 -0.34 -0.20 -0.34 -0.47 0 -0.57 0.76 -0.64 11.09 -1.03 8.75 -0.34 21.36 -0.05 32.52 0.76 45.48 3.35 86.06 15.40 108.28 32.15 3.42 2.59 5.32 4.21 5.12 4.41 -0.20 0.17 0.64 1.13 1.01 1.13 0.39 0 5.49 5.25 6.85 7.02 2.54 3.35 4.93 8.33 5.86 12.29 3.03 12.56 -4.07 25.40 -20.45 37.03 -12.61 8.92 -33.11 18.11 -53.39 23.87 -22.30 6.33 -50.43 10.59 -73.24 11.06 -3.18 0.07 -7.29 0.17 -9.12 0.20 -1.82 0.05 -6.60 0 -10.59 -0.10z m22.86 -1.16 c0.84 -0.05 1.48 -0.17 1.40 -0.27 -0.05 -0.12 1.65 -0.27 3.79 -0.37 2.17 -0.10 4.90 -0.27 6.09 -0.39 1.21 -0.15 3.57 -0.37 5.27 -0.49 1.70 -0.15 4.63 -0.49 6.53 -0.76 1.90 -0.27 4.39 -0.59 5.54 -0.71 1.16 -0.10 3.20 -0.37 4.56 -0.59 1.36 -0.22 3.92 -0.64 5.67 -0.91 1.77 -0.30 3.87 -0.67 4.68 -0.86 0.81 -0.17 2.09 -0.42 2.83 -0.57 1.33 -0.22 6.50 -1.23 9.12 -1.77 1.16 -0.25 3.89 -0.94 6.78 -1.70 0.42 -0.10 2.02 -0.54 3.57 -0.94 3.72 -0.99 8.55 -2.41 10.15 -2.98 0.71 -0.25 2.76 -0.94 4.51 -1.50 6.43 -2.07 18.48 -7.05 24.98 -10.32 8.06 -4.09 10.32 -5.37 14.91 -8.48 4.21 -2.88 4.61 -3.15 5.37 -3.82 0.34 -0.32 0.76 -0.52 0.91 -0.44 0.12 0.10 0.32 0 0.44 -0.17 0.10 -0.17 0.59 -0.57 1.06 -0.84 0.96 -0.59 5.96 -5.57 7.74 -7.71 2.04 -2.49 5.27 -8.13 4.93 -8.67 -0.10 -0.17 -0.07 -0.20 0.10 -0.10 0.34 0.20 0.79 -0.81 1.55 -3.47 0.39 -1.43 0.57 -2.81 0.64 -5.49 0.17 -5.03 -0.37 -7.61 -2.46 -11.83 -0.84 -1.70 -1.60 -3.10 -1.70 -3.15 -0.12 -0.05 -0.20 -0.30 -0.20 -0.54 0 -0.25 -0.10 -0.52 -0.22 -0.62 -0.12 -0.07 -0.20 -0.37 -0.15 -0.69 0.07 -0.37 -0.15 -0.84 -0.62 -1.40 -0.42 -0.47 -0.74 -0.71 -0.74 -0.54 0 0.17 -0.12 0.25 -0.25 0.17 -0.15 -0.10 -0.20 -0.27 -0.12 -0.39 0.10 -0.12 0.02 -0.22 -0.12 -0.22 -0.15 0 -0.44 -0.17 -0.64 -0.37 -0.22 -0.20 -0.32 -0.37 -0.22 -0.37 0.10 0 -0.02 -0.17 -0.22 -0.39 -0.22 -0.20 -0.34 -0.49 -0.27 -0.62 0.10 -0.12 0.02 -0.22 -0.15 -0.22 -0.15 0 -1.18 -0.86 -2.29 -1.92 -5.52 -5.32 -6.68 -6.31 -7.10 -6.06 -0.12 0.07 -0.12 0.25 -0.05 0.39 0.10 0.15 -0.69 -0.39 -1.77 -1.21 -1.06 -0.81 -3.01 -2.17 -4.29 -3.03 -1.28 -0.86 -2.49 -1.75 -2.66 -1.95 -0.27 -0.32 -0.30 -0.32 -0.15 -0.02 0.10 0.20 0.10 0.30 0 0.20 -0.10 -0.07 -0.17 -0.22 -0.17 -0.30 0 -0.07 -0.15 -0.49 -0.32 -0.91 -0.27 -0.64 -0.49 -0.81 -1.21 -0.89 -0.49 -0.05 -0.94 0.02 -1.01 0.15 -0.10 0.12 -0.96 -0.22 -1.95 -0.76 -2.71 -1.55 -9.44 -4.75 -13.45 -6.41 -25.01 -10.27 -56.96 -16.75 -90.81 -18.40 -10.91 -0.54 -14.78 -0.59 -15.10 -0.20 -0.27 0.32 0.07 0.42 2.46 0.79 27.22 4.09 54.32 11.55 72.28 19.91 17 7.93 30.87 18.38 37.10 28.01 3.40 5.22 4.71 9.26 4.73 14.41 0 9.31 -5.96 18.72 -17.37 27.37 -9.83 7.44 -23.23 13.60 -41.73 19.19 -19.09 5.74 -43.14 9.95 -65.78 11.46 -2.17 0.15 -5.49 0.37 -7.39 0.49 -7.74 0.54 -19.49 0.79 -28.82 0.62 -9.81 -0.17 -12.66 -0.34 -15.84 -0.86 -1.33 -0.22 -1.87 -0.25 -2.09 -0.02 -0.15 0.15 -0.22 0.32 -0.15 0.37 0.22 0.20 5.17 1.13 9.21 1.75 2.32 0.34 4.85 0.71 5.67 0.86 1.72 0.30 2.41 0.37 7.64 0.86 3.67 0.34 7.88 0.79 9.61 0.99 0.42 0.05 3.52 0.22 6.90 0.37 3.40 0.15 6.33 0.30 6.53 0.34 0.52 0.12 22.44 0.07 24.34 -0.05z m87.02 -94.53 c0 -0.15 -5.57 -3.82 -5.76 -3.82 -0.07 0 -0.07 0.15 0 0.34 0.12 0.34 1.31 1.01 1.63 0.94 0.12 -0.02 0.32 0.17 0.49 0.42 0.15 0.27 0.44 0.42 0.64 0.32 0.25 -0.07 0.32 -0.02 0.20 0.17 -0.12 0.17 -0.05 0.25 0.15 0.22 0.17 -0.05 0.30 0.05 0.27 0.22 -0.05 0.17 0.07 0.25 0.25 0.17 0.17 -0.05 0.69 0.17 1.16 0.49 0.96 0.69 0.99 0.69 0.99 0.52z"/>
  <path d="M280.51 69.70 c-0.34 -0.42 -0.64 -0.67 -0.64 -0.59 0 0.30 -0.74 -0.39 -1.03 -0.94 -0.25 -0.47 -0.20 -0.47 0.44 0.05 0.71 0.57 2.22 2.24 2 2.24 -0.07 0 -0.42 -0.34 -0.76 -0.76z"/>
  <path d="M312.93 140.72 c2.61 -4.48 4.26 -8.70 5.27 -13.35 0.64 -2.88 0.64 -10.67 0 -14.04 -1.21 -6.60 -3.33 -12.79 -6.53 -19.17 -0.57 -1.11 -1.01 -2.12 -1.01 -2.27 0 -0.12 0.54 -0.52 1.21 -0.86 3.84 -1.95 7.64 -7.56 9.71 -14.41 1.36 -4.43 2.34 -11.58 2.39 -17.29 0 -0.39 0.15 -0.69 0.32 -0.69 0.32 0 3.79 5.10 6.04 8.87 6.92 11.53 9.24 24.71 6.55 36.91 -2.02 9.14 -6.53 17.96 -13.75 27.03 -1.95 2.46 -10 10.69 -10.94 11.19 -0.37 0.20 -0.17 -0.30 0.74 -1.90z"/>
  <path d="M303.01 80.88 c-7.69 -12.74 -22.42 -24.91 -39.27 -32.50 -2.29 -1.03 -4.24 -1.92 -4.29 -1.97 -0.07 -0.07 0 -0.20 0.12 -0.32 0.62 -0.62 13.75 2.56 21.68 5.25 2.96 1.01 7.22 2.51 9.46 3.35 8.62 3.23 12.34 3.67 15.05 1.82 0.47 -0.32 1.13 -1.06 1.48 -1.65 0.52 -0.89 0.59 -1.33 0.57 -3.13 -0.02 -1.26 -0.20 -2.54 -0.44 -3.18 -0.49 -1.38 -0.49 -1.50 0.10 -1.50 0.91 0 4.09 4.63 5.40 7.88 2.81 7.12 1.70 14.41 -3.40 22.05 -1.55 2.34 -4.39 5.81 -4.88 5.96 -0.15 0.05 -0.86 -0.89 -1.58 -2.07z"/>
  <path d="M30.62 69.52 c-0.59 -0.05 -1.06 -0.15 -1.06 -0.25 0 -0.49 4.11 -8.43 5.54 -10.62 4.53 -7.12 10.64 -13.45 20.57 -21.34 2.02 -1.63 7.02 -5.17 7.76 -5.54 0.12 -0.07 1.03 -0.64 2 -1.28 0.99 -0.64 3.60 -2.19 5.79 -3.42 12.12 -6.75 24.44 -11.95 38.01 -16.01 25.42 -7.61 57.13 -11.58 82.46 -10.32 30.11 1.50 56.42 7.02 77.95 16.33 4.48 1.95 11.90 5.69 16.26 8.25 4.07 2.37 8.08 5 8.18 5.37 0.10 0.32 -2.49 2.41 -5.22 4.19 -5.59 3.65 -11.65 5.30 -17.37 4.78 -1.82 -0.17 -2.76 -0.47 -7.27 -2.29 -12.88 -5.22 -24.54 -8.35 -41.64 -11.23 -10.64 -1.77 -17.91 -2.66 -30.06 -3.65 -6.75 -0.54 -28.58 -0.62 -35.23 -0.12 -32.10 2.39 -55.14 7.32 -76.10 16.24 -7.44 3.15 -17.25 8.33 -22.81 12.02 -6.09 4.04 -14.58 11.87 -18.11 16.70 l-1.72 2.37 -3.45 -0.05 c-1.90 -0.02 -3.92 -0.07 -4.48 -0.12z"/>
 </g>
 <g fill="#ffffff">
  <path d="M183.67 114.04 c-7.49 -0.74 -12.20 -4.24 -13.40 -10.03 -0.34 -1.68 -0.34 -5.32 0 -7 0.99 -4.66 4.95 -8.15 10.69 -9.49 2.78 -0.62 9.31 -0.62 12.07 0.02 4.31 0.99 7.34 3.03 8.75 5.91 2.02 4.09 1.95 10.35 -0.12 14.44 -1.75 3.47 -5.79 5.57 -11.85 6.16 -2.76 0.27 -3.05 0.27 -6.13 -0.02z m9.02 -6.82 c1.45 -0.57 2.59 -1.60 3.33 -3.01 0.37 -0.69 0.47 -1.40 0.47 -3.70 0 -3.05 -0.32 -4.11 -1.65 -5.35 -1.53 -1.43 -4.95 -2.19 -9.07 -1.97 -5.81 0.30 -8.18 2.09 -8.55 6.53 -0.27 3.15 0.74 5.69 2.73 6.92 1.50 0.94 3.60 1.26 7.66 1.16 3.05 -0.05 3.94 -0.17 5.08 -0.59z"/>
  <path d="M32.20 113.72 c-0.67 -0.17 -1.65 -0.64 -2.22 -1.03 -1.31 -0.91 -2.41 -3.05 -10.10 -19.73 -0.94 -2.07 -1.85 -3.77 -2.02 -3.77 -0.32 0 -1.23 3.84 -3.82 16.11 l-1.65 7.91 -5.40 0.12 c-2.96 0.07 -5.44 0.10 -5.52 0.05 -0.12 -0.07 0.02 -0.64 3.08 -12.24 5.62 -21.31 7.12 -26.58 7.88 -27.74 0.81 -1.26 2.34 -1.95 4.26 -1.95 1.95 0 2.96 0.42 3.97 1.63 0.44 0.54 3.60 6.48 7 13.21 3.42 6.73 6.28 12.29 6.36 12.37 0.12 0.12 3.38 -6.13 10.45 -20.18 2.69 -5.30 3.72 -6.55 5.79 -7 2.37 -0.52 4.51 0.27 5.52 2.02 0.62 1.06 2 5.94 7.32 26.16 1.50 5.69 2.93 11.09 3.18 12.02 l0.47 1.65 -5.49 0 -5.49 0 -0.27 -1.28 c-1.87 -8.48 -5.40 -22.86 -5.59 -22.86 -0.12 0 -1.85 3.47 -3.82 7.71 -5.42 11.75 -6.63 14.17 -7.42 15.05 -1.43 1.65 -4.21 2.41 -6.45 1.77z"/>
  <path d="M160.75 113.35 c-0.71 -0.44 -6.48 -6.23 -12.02 -12.02 -1.45 -1.53 -2.73 -2.78 -2.88 -2.78 -0.15 0 -0.25 2.61 -0.25 7.39 l0 7.39 -3.33 0 -3.33 0 0 -11.26 c0 -6.92 0.10 -11.63 0.25 -12.20 0.57 -2.02 2.66 -3.20 4.75 -2.66 0.91 0.25 1.92 1.21 8.30 7.69 l7.27 7.42 0.12 -7.37 0.12 -7.37 3.20 0 3.20 0 0.07 11.70 c0.05 13.06 0.10 12.81 -1.65 13.97 -1.06 0.71 -2.81 0.76 -3.84 0.10z"/>
  <path d="M228.50 113.38 c-0.39 -0.27 -3.82 -3.70 -7.61 -7.64 -3.77 -3.97 -6.95 -7.19 -7.07 -7.19 -0.12 0 -0.22 3.18 -0.22 7.37 l0 7.37 -3.13 0.10 c-1.75 0.07 -3.23 0.07 -3.33 0.02 -0.12 -0.05 -0.20 -5.27 -0.20 -11.60 0 -11.46 0 -11.53 0.57 -12.61 0.39 -0.81 0.84 -1.26 1.65 -1.65 2.51 -1.28 2.96 -0.99 11.33 7.69 l7.02 7.27 0.12 -7.46 0.12 -7.44 3.28 -0.07 3.25 -0.07 0 11.78 c0 13.13 0.02 12.88 -1.70 14.04 -1.06 0.71 -3.01 0.76 -4.09 0.12z"/>
  <path d="M72.92 92.90 c0 -17.05 0.05 -20.45 0.34 -20.69 0.22 -0.20 1.82 -0.27 5.22 -0.22 l4.90 0.07 0.07 20.65 0.05 20.62 -5.30 0 -5.30 0 0 -20.42z"/>
  <path d="M106.92 113.08 c-8.43 -0.81 -14.14 -4.58 -17.37 -11.36 -2.51 -5.32 -2.54 -12.17 -0.02 -17.57 3.15 -6.87 9.04 -10.86 17.64 -11.97 2.29 -0.30 134.27 -0.34 134.27 -0.05 0 0.20 -1.50 2.61 -5.25 8.35 l-1.65 2.54 -63.17 0 c-45.18 0 -63.56 0.07 -64.50 0.27 -3.42 0.71 -6.48 3.05 -7.91 6.06 -0.71 1.50 -0.79 1.90 -0.79 3.89 0 1.97 0.07 2.39 0.79 3.87 0.94 1.97 2.69 3.84 4.48 4.73 2.24 1.16 3.77 1.33 11.48 1.43 l7.14 0.07 0.07 -3.25 0.07 -3.28 -6.50 0 c-5.89 0 -6.53 -0.05 -6.87 -0.42 -0.76 -0.86 -5.12 -7.42 -5.12 -7.69 0 -0.20 4.04 -0.25 14.73 -0.22 l14.71 0.07 0 12.32 0 12.32 -12.20 0.02 c-6.70 0.02 -13.03 -0.05 -14.04 -0.15z"/>
 </g>
 <g fill="#ffffff">
  <path d="M90.59 137.47 c-1.92 -0.32 -2.39 -0.76 -2.39 -2.22 0 -1.40 0.12 -1.45 1.63 -0.71 1.48 0.71 3.50 0.69 4.09 -0.02 0.25 -0.30 0.44 -0.69 0.44 -0.86 0 -0.69 -1.03 -1.55 -2.64 -2.17 -1.01 -0.39 -2.04 -1.01 -2.54 -1.53 -0.71 -0.74 -0.84 -1.06 -0.94 -2.32 -0.12 -1.80 0.42 -2.83 1.95 -3.70 1.82 -1.03 5.74 -0.89 6.45 0.25 0.12 0.22 0.17 0.79 0.07 1.31 -0.15 0.81 -0.25 0.91 -0.71 0.79 -2.19 -0.64 -3.18 -0.74 -3.82 -0.37 -0.74 0.39 -1.01 1.50 -0.54 2.07 0.15 0.20 1.08 0.64 2.04 1.03 0.99 0.39 2.14 1.06 2.66 1.55 2.34 2.24 0.94 6.13 -2.46 6.87 -1.40 0.30 -1.60 0.30 -3.30 0.02z"/>
  <path d="M115.96 137.45 c-2.88 -0.69 -4.48 -2.44 -5.10 -5.57 -0.64 -3.28 0.62 -6.33 3.20 -7.81 1.23 -0.69 1.55 -0.76 3.45 -0.76 1.85 0 2.24 0.07 3.38 0.71 2.32 1.28 3.42 3.60 3.23 6.75 -0.15 2.32 -0.76 3.84 -2.12 5.15 -1.40 1.36 -4.04 2.02 -6.04 1.53z m3.28 -3.13 c1.13 -0.84 1.55 -1.92 1.55 -3.84 0 -2.93 -1.23 -4.58 -3.40 -4.58 -2.09 0 -3.33 1.65 -3.33 4.46 0 3.67 2.73 5.76 5.17 3.97z"/>
  <path d="M151.71 137.47 c-2.02 -0.34 -2.54 -0.71 -2.61 -1.95 -0.12 -1.72 0 -1.85 1.33 -1.13 1.58 0.84 3.82 0.89 4.39 0.07 0.22 -0.30 0.39 -0.74 0.39 -0.94 0 -0.59 -0.99 -1.40 -2.22 -1.85 -2.88 -1.01 -3.94 -2.22 -3.94 -4.48 0 -2.59 2.27 -4.19 5.54 -3.94 0.94 0.07 2.04 0.27 2.44 0.44 0.64 0.30 0.69 0.39 0.57 1.40 -0.05 0.57 -0.17 1.13 -0.25 1.21 -0.07 0.07 -0.67 -0.05 -1.31 -0.27 -1.95 -0.67 -3.23 -0.47 -3.79 0.62 -0.47 0.84 0.25 1.55 2.44 2.44 2.39 0.96 3.35 1.92 3.62 3.57 0.20 1.38 -0.39 3.08 -1.28 3.79 -1.16 0.91 -3.38 1.33 -5.32 1.01z"/>
  <path d="M99.58 137.18 c-0.34 -0.34 -0.44 -12.91 -0.07 -13.48 0.17 -0.25 0.94 -0.30 3.50 -0.25 2.76 0.07 3.47 0.17 4.29 0.62 1.31 0.69 2.09 2.04 2.09 3.72 0 3.03 -1.53 4.48 -4.93 4.73 l-1.85 0.15 -0.12 2.34 -0.12 2.34 -1.23 0.07 c-0.74 0.05 -1.36 -0.05 -1.55 -0.25z m5.08 -7.10 c1.43 0 2.12 -2.41 0.99 -3.62 -0.42 -0.44 -0.79 -0.57 -1.85 -0.57 l-1.31 0 0 2.07 c0 2.17 0.12 2.44 1.11 2.24 0.27 -0.07 0.74 -0.12 1.06 -0.12z"/>
  <path d="M126.71 137.30 c-0.25 -0.07 -0.32 -1.72 -0.32 -7.02 l0 -6.87 3.52 0.07 c2.83 0.05 3.67 0.17 4.46 0.54 2.41 1.21 2.76 4.56 0.69 6.50 l-0.86 0.84 0.54 0.89 c0.99 1.68 2.51 4.78 2.41 4.90 -0.07 0.05 -0.71 0.17 -1.45 0.25 -1.58 0.15 -1.45 0.27 -3.10 -2.88 -1.18 -2.24 -1.26 -2.34 -2.12 -2.41 l-0.89 -0.07 0 2.56 c0 2.46 -0.02 2.59 -0.54 2.73 -0.67 0.17 -1.92 0.17 -2.34 -0.02z m5.84 -8.15 c0.69 -0.57 0.76 -2.04 0.12 -2.76 -0.34 -0.37 -0.74 -0.49 -1.75 -0.49 l-1.28 0 -0.10 1.68 c-0.05 0.91 -0.05 1.72 0 1.85 0.17 0.37 2.46 0.17 3.01 -0.27z"/>
  <path d="M141.49 137.32 c-0.25 -0.10 -0.32 -1.50 -0.32 -5.79 l0 -5.64 -2 0 -1.97 0 0.07 -1.16 0.07 -1.18 5.37 -0.07 5.35 -0.05 0 1.23 0 1.23 -1.85 0 -1.85 0 -0.05 5.74 -0.07 5.72 -1.23 0.05 c-0.67 0.02 -1.38 0 -1.53 -0.07z"/>
  <path d="M165.21 137.25 c-0.22 -0.34 -0.39 -11.60 -0.22 -12.93 l0.15 -0.94 3.60 0.10 c4.09 0.10 4.95 0.39 5.76 1.92 0.71 1.38 0.44 2.88 -0.69 3.87 l-0.94 0.79 0.59 0.25 c1.80 0.69 2.49 3.08 1.43 4.93 -0.91 1.65 -2.09 2.07 -6.16 2.19 -2.37 0.07 -3.40 0.02 -3.52 -0.17z m6.31 -2.66 c1.48 -1.70 0.10 -3.65 -2.46 -3.47 l-1.16 0.07 -0.07 1.11 c-0.05 0.59 -0.02 1.45 0.07 1.90 l0.15 0.81 1.55 0 c1.16 0 1.65 -0.10 1.92 -0.42z m-0.44 -6.01 c0.74 -0.59 0.84 -1.40 0.22 -2.17 -0.34 -0.39 -0.76 -0.54 -1.80 -0.59 l-1.36 -0.05 -0.07 1.68 -0.07 1.65 1.21 0 c0.86 0 1.40 -0.15 1.87 -0.52z"/>
  <path d="M176.25 137.15 c-0.10 -0.32 2.27 -7.59 3.84 -11.68 l0.79 -2.04 1.70 0 c1.36 0 1.72 0.07 1.92 0.44 0.44 0.84 4.71 12.74 4.71 13.16 0 0.10 -0.71 0.20 -1.58 0.20 l-1.60 0 -0.54 -1.48 -0.54 -1.48 -2.41 0 -2.41 0 -0.44 1.38 c-0.30 1.01 -0.59 1.45 -1.01 1.60 -0.86 0.32 -2.27 0.27 -2.41 -0.10z m7.79 -5.52 c0 -0.52 -1.33 -4.51 -1.50 -4.51 -0.20 0 -1.45 3.79 -1.45 4.39 0 0.20 0.49 0.30 1.48 0.30 0.81 0 1.48 -0.07 1.48 -0.17z"/>
  <path d="M190.86 137.30 c-0.10 -0.07 -0.17 -3.25 -0.17 -7.05 l0 -6.87 3.65 0.10 c3.10 0.07 3.74 0.15 4.48 0.59 1.95 1.13 2.56 3.55 1.43 5.54 -0.30 0.54 -0.59 0.96 -0.67 0.96 -0.07 0 -0.34 0.17 -0.62 0.37 -0.44 0.32 -0.44 0.37 0.05 1.03 0.89 1.28 2.54 4.80 2.41 5.17 -0.10 0.25 -0.49 0.32 -1.55 0.27 l-1.43 -0.07 -1.36 -2.59 c-1.33 -2.54 -1.38 -2.59 -2.27 -2.66 l-0.94 -0.07 0 2.56 c0 2.12 -0.07 2.61 -0.39 2.73 -0.52 0.20 -2.44 0.20 -2.64 -0.02z m5.12 -7.71 c1.16 -0.27 1.60 -0.79 1.60 -1.90 0 -1.26 -0.71 -1.80 -2.34 -1.80 l-1.36 0 0 1.82 c0 2.19 0.15 2.34 2.09 1.87z"/>
 </g>
</svg>